<?xml version="1.0" encoding="UTF-8"?>
<!DOCTYPE svg PUBLIC "-//W3C//DTD SVG 1.0//EN" "http://www.w3.org/TR/2001/REC-SVG-20010904/DTD/svg10.dtd">
<!-- Creator: CorelDRAW 2017 -->
<svg xmlns="http://www.w3.org/2000/svg" xml:space="preserve" width="210mm" height="297mm" version="1.0" style="shape-rendering:geometricPrecision; text-rendering:geometricPrecision; image-rendering:optimizeQuality; fill-rule:evenodd; clip-rule:evenodd"
viewBox="0 0 21000 29700"
 xmlns:xlink="http://www.w3.org/1999/xlink">
 <defs>
  <style type="text/css">
   <![CDATA[
    .fil0 {fill:#C5C6C6}
    .fil1 {fill:#7690C9}
   ]]>
  </style>
 </defs>
 <g id="Слой_x0020_1">
  <metadata id="CorelCorpID_0Corel-Layer"/>
  <polygon class="fil0" points="19687.5,5662.5 17062.5,20756.25 7903.71,24037.5 -0,20756.25 803.91,16867.97 4167.19,16867.97 3839.06,18533.2 8613.28,20354.3 14113.48,18533.21 14884.57,14550.59 1209.96,14550.59 1866.21,11187.31 15553.13,11187.3 15983.79,9025.78 2309.18,9025.78 2977.73,5662.5 "/>
  <polygon class="fil1" points="20567.61,4661.73 17942.61,19755.48 8783.82,23036.73 880.11,19755.48 1684.02,15867.2 5047.3,15867.2 4719.17,17532.43 9493.39,19353.53 14993.59,17532.44 15764.68,13549.82 2090.07,13549.82 2746.32,10186.54 16433.24,10186.53 16863.9,8025.01 3189.29,8025.01 3857.84,4661.73 "/>
 </g>
</svg>
